<svg width="24" height="24" viewBox="0 0 24 24" fill="none" xmlns="http://www.w3.org/2000/svg">
<path d="M19.9955 12.1815C19.9947 11.6745 19.9514 11.1683 19.8661 10.6682H12.1714V13.6749H16.5771C16.4803 14.159 16.2859 14.6194 16.0053 15.0292C15.7247 15.439 15.3635 15.7899 14.9428 16.0615V18.0615H17.5713C18.3723 17.3014 19.0018 16.3855 19.4193 15.3728C19.8368 14.3601 20.0331 13.273 19.9955 12.1815Z" fill="#4285F4"/>
<path d="M12.1714 20.0017C14.1583 20.0537 16.0903 19.3596 17.5713 18.0617L14.9428 16.0617C14.1183 16.584 13.1532 16.8532 12.1714 16.835C11.1501 16.8226 10.1586 16.4968 9.33649 15.9036C8.51435 15.3104 7.90301 14.4796 7.58859 13.5283H4.87842V15.5883C5.55602 16.914 6.59707 18.029 7.88506 18.8084C9.17306 19.5878 10.6572 20.001 12.1714 20.0017Z" fill="#34A853"/>
<path d="M7.58859 13.5281C7.4157 13.037 7.32823 12.5209 7.32983 12.0015C7.33158 11.4823 7.41896 10.9667 7.58859 10.4748V8.41479H4.87842C4.30092 9.52584 3.99993 10.7548 4 12.0015C3.99993 13.2481 4.30092 14.4771 4.87842 15.5881L7.58859 13.5281Z" fill="#FBBC05"/>
<path d="M12.1714 7.16824C13.336 7.1499 14.4611 7.58096 15.3037 8.36824L17.6326 6.08824C16.1578 4.72503 14.1994 3.97674 12.1714 4.00158C10.6572 4.00223 9.17306 4.41539 7.88506 5.19482C6.59707 5.97425 5.55602 7.0892 4.87842 8.41491L7.58859 10.4749C7.90301 9.52359 8.51435 8.69282 9.33649 8.09961C10.1586 7.5064 11.1501 7.18065 12.1714 7.16824Z" fill="#EA4335"/>
</svg>
